<svg version="1.1" id="Слой_1" xmlns="http://www.w3.org/2000/svg" xmlns:xlink="http://www.w3.org/1999/xlink" x="0px" y="0px"
	 width="241px" height="54px" viewBox="0 0 241 54" enable-background="new 0 0 241 54" xml:space="preserve">
<path fill="white" d="M22.919,48.4l28.619-0.252l-20.555-35.19l-16.792,29.93l-4.521,0.04L28.976,9.361l-3.229-5.527L0,48.602
	l17.439-0.153L31.08,24.136l10.811,18.508l-16.65,0.146L22.919,48.4z"/>
<path fill="white" d="M67.676,53.989L36.367,0.225l0.37-0.219l31.31,53.763L67.676,53.989z"/>
<path fill="white" d="M70.484,20.811v-0.052c0-5.224,4.094-9.459,9.553-9.459c5.458,0,9.502,4.184,9.502,9.407v0.052
	c0,5.223-4.095,9.459-9.553,9.459S70.484,26.034,70.484,20.811z M84.535,20.811v-0.052c0-2.625-1.845-4.912-4.549-4.912
	c-2.679,0-4.473,2.235-4.473,4.859v0.052c0,2.625,1.845,4.912,4.524,4.912C82.741,25.67,84.535,23.436,84.535,20.811z
	 M94.624,11.664h4.575l7.278,9.615v-9.615h4.852v18.191h-4.296l-7.557-9.979v9.979h-4.852V11.664z M121.315,16.081h-5.307v-4.417
	h15.517v4.417h-5.307v13.773h-4.903V16.081z M136.305,11.664h4.929v18.191h-4.929V11.664z M146.391,20.811v-0.052
	c0-5.301,3.968-9.459,9.325-9.459c3.614,0,5.938,1.559,7.505,3.794l-3.689,2.937c-1.011-1.299-2.173-2.131-3.866-2.131
	c-2.477,0-4.221,2.157-4.221,4.807v0.052c0,2.729,1.744,4.859,4.221,4.859c1.845,0,2.931-0.883,3.993-2.208l3.689,2.703
	c-1.668,2.365-3.918,4.106-7.834,4.106C150.46,30.218,146.391,26.242,146.391,20.811z M167.978,11.664h14.228v4.288h-9.376v2.754
	h8.491v3.976h-8.491v2.885h9.502v4.288h-14.354V11.664z M187.365,11.664h4.903v13.773h8.567v4.418h-13.47V11.664z M205.464,11.664
	h4.902v13.773h8.568v4.418h-13.47V11.664z M221.945,20.811v-0.052c0-5.224,4.094-9.459,9.553-9.459c5.458,0,9.502,4.184,9.502,9.407
	v0.052c0,5.223-4.095,9.459-9.553,9.459S221.945,26.034,221.945,20.811z M235.996,20.811v-0.052c0-2.625-1.845-4.912-4.549-4.912
	c-2.679,0-4.473,2.235-4.473,4.859v0.052c0,2.625,1.845,4.912,4.524,4.912C234.202,25.67,235.996,23.436,235.996,20.811z
	 M51.424,25.482v-6.023l4.499,7.069h0.101l4.524-7.121v10.447h4.877V11.664h-5.181l-4.22,7.042l-4.22-7.042h-5.181v5.574
	L51.424,25.482z"/>
<path fill="white" d="M71.494,39.707h0.678v6.061h-0.678V39.707z"/>
<path fill="white" d="M77.369,39.707h0.636l3.786,4.857v-4.857h0.661v6.061h-0.541l-3.881-4.97v4.97h-0.661V39.707z"/>
<path fill="white" d="M89.18,40.338h-2.018v-0.631h4.722v0.631h-2.018v5.429H89.18V40.338z"/>
<path fill="white" d="M96.594,39.707h4.344v0.623h-3.666v2.069h3.279v0.623h-3.279v2.121h3.709v0.625h-4.387V39.707z"/>
<path fill="white" d="M105.785,39.707h2.585c0.738,0,1.331,0.225,1.708,0.606c0.292,0.294,0.464,0.719,0.464,1.194v0.017
	c0,1.005-0.687,1.593-1.631,1.766l1.846,2.477h-0.833l-1.743-2.355h-1.717v2.355h-0.679V39.707z M108.309,42.798
	c0.902,0,1.545-0.468,1.545-1.247v-0.018c0-0.745-0.566-1.195-1.537-1.195h-1.854v2.459H108.309z"/>
<path fill="white" d="M115.432,39.707h0.636l3.786,4.857v-4.857h0.661v6.061h-0.541l-3.881-4.97v4.97h-0.661V39.707z"/>
<path fill="white" d="M127.878,39.664h0.635l2.739,6.104h-0.73l-0.704-1.602h-3.271l-0.713,1.602h-0.696L127.878,39.664z
	 M129.552,43.551l-1.366-3.091l-1.373,3.091H129.552z"/>
<path fill="white" d="M136.692,40.338h-2.018v-0.631h4.722v0.631h-2.018v5.429h-0.687V40.338z"/>
<path fill="white" d="M144.167,39.707h0.678v6.061h-0.678V39.707z"/>
<path fill="white" d="M149.776,42.754v-0.017c0-1.671,1.245-3.135,3.074-3.135c1.829,0,3.056,1.447,3.056,3.118v0.018
	c0,1.67-1.245,3.134-3.074,3.134C151.003,45.871,149.776,44.425,149.776,42.754z M155.202,42.754v-0.017
	c0-1.377-0.996-2.502-2.37-2.502c-1.373,0-2.352,1.108-2.352,2.485v0.018c0,1.376,0.996,2.501,2.37,2.501
	C154.223,45.239,155.202,44.131,155.202,42.754z"/>
<path fill="white" d="M160.779,39.707h0.636l3.786,4.857v-4.857h0.661v6.061h-0.541l-3.881-4.97v4.97h-0.661V39.707z"/>
<path fill="white" d="M173.226,39.664h0.635l2.739,6.104h-0.73l-0.704-1.602h-3.271l-0.713,1.602h-0.695L173.226,39.664z
	 M174.9,43.551l-1.366-3.091l-1.373,3.091H174.9z"/>
<path fill="white" d="M181.224,39.707h0.679v5.428h3.382v0.633h-4.061V39.707z"/>
<path fill="white" d="M195.725,42.754v-0.017c0-1.663,1.21-3.135,3.013-3.135c1.013,0,1.64,0.294,2.241,0.806l-0.438,0.519
	c-0.463-0.406-0.978-0.692-1.828-0.692c-1.331,0-2.284,1.134-2.284,2.485v0.018c0,1.445,0.918,2.52,2.378,2.52
	c0.687,0,1.322-0.269,1.734-0.606v-1.508h-1.828v-0.614h2.481v2.415c-0.558,0.503-1.399,0.927-2.413,0.927
	C196.892,45.871,195.725,44.486,195.725,42.754z"/>
<path fill="white" d="M206.161,39.707h2.584c0.738,0,1.331,0.225,1.708,0.606c0.292,0.294,0.464,0.719,0.464,1.194v0.017
	c0,1.005-0.687,1.593-1.631,1.766l1.846,2.477h-0.833l-1.742-2.355h-1.717v2.355h-0.679V39.707z M208.685,42.798
	c0.902,0,1.545-0.468,1.545-1.247v-0.018c0-0.745-0.566-1.195-1.537-1.195h-1.854v2.459H208.685z"/>
<path fill="white" d="M215.542,42.754v-0.017c0-1.671,1.245-3.135,3.074-3.135s3.056,1.447,3.056,3.118v0.018
	c0,1.67-1.245,3.134-3.073,3.134C216.769,45.871,215.542,44.425,215.542,42.754z M220.967,42.754v-0.017
	c0-1.377-0.996-2.502-2.37-2.502c-1.374,0-2.353,1.108-2.353,2.485v0.018c0,1.376,0.996,2.501,2.37,2.501
	C219.988,45.239,220.967,44.131,220.967,42.754z"/>
<path fill="white" d="M226.451,43.23v-3.523h0.678v3.48c0,1.307,0.687,2.043,1.837,2.043c1.108,0,1.812-0.676,1.812-2v-3.523h0.678
	v3.472c0,1.766-1.004,2.684-2.507,2.684C227.464,45.862,226.451,44.944,226.451,43.23z"/>
<path fill="white" d="M236.501,39.707h2.25c1.356,0,2.249,0.727,2.249,1.922v0.017c0,1.308-1.082,1.983-2.361,1.983h-1.459v2.139
	h-0.679V39.707z M238.665,43.004c0.996,0,1.648-0.536,1.648-1.333v-0.017c0-0.866-0.644-1.316-1.614-1.316h-1.52v2.666H238.665z"/>
</svg>
