<svg width="346" height="422" viewBox="0 0 346 422" fill="none" xmlns="http://www.w3.org/2000/svg">
<path fill-rule="evenodd" clip-rule="evenodd" d="M48.6636 116.848C47.0907 115.275 44.5404 115.275 42.9675 116.848L29.1797 130.636C27.6068 132.209 27.6068 134.759 29.1797 136.332C30.7527 137.905 33.3029 137.905 34.8759 136.332L48.6636 122.544C50.2366 120.971 50.2366 118.421 48.6636 116.848ZM1.66363 116.848C0.0906792 118.421 0.0906792 120.971 1.66363 122.544L15.4514 136.332C17.0243 137.905 19.5746 137.905 21.1476 136.332C22.7205 134.759 22.7205 132.209 21.1476 130.636L7.35981 116.848C5.78686 115.275 3.23658 115.275 1.66363 116.848ZM29.6636 149.544C28.0907 147.971 28.0907 145.421 29.6636 143.848C31.2366 142.275 33.7869 142.275 35.3598 143.848L49.1476 157.636C50.7205 159.209 50.7205 161.759 49.1476 163.332C47.5746 164.905 45.0243 164.905 43.4514 163.332L29.6636 149.544ZM20.6636 143.848C19.0907 142.275 16.5404 142.275 14.9675 143.848L1.17971 157.636C-0.393238 159.209 -0.393238 161.759 1.17971 163.332C2.75267 164.905 5.30293 164.905 6.87588 163.332L20.6636 149.544C22.2366 147.971 22.2366 145.421 20.6636 143.848Z" fill="#FFD933"/>
<rect x="232.816" y="369.252" width="8.05561" height="52.7054" rx="4.0278" transform="rotate(-45 232.816 369.252)" fill="#00A0E3"/>
<path fill-rule="evenodd" clip-rule="evenodd" d="M251.05 43.3463C251.982 42.8889 252.97 42.5609 253.986 42.3693C254.534 42.2658 255.091 42.202 255.652 42.1792C257.25 42.1141 258.845 42.3828 260.334 42.9682C261.823 43.5536 263.173 44.4428 264.299 45.5791C265.426 46.7155 266.303 48.074 266.874 49.5681C267.446 51.0622 267.701 52.6591 267.621 54.257C267.593 54.8175 267.524 55.3737 267.416 55.9215C267.215 56.9354 266.878 57.9202 266.413 58.8485C266.143 59.3861 265.832 59.9004 265.484 60.387C265.281 60.6698 265.112 60.976 264.98 61.2951C264.488 62.4876 264.526 63.8599 265.354 64.8621C265.634 65.2005 265.974 65.4624 266.343 65.641C267.325 66.3812 268.633 66.4083 269.781 65.9472C270.101 65.8185 270.409 65.6517 270.693 65.4519C271.183 65.1079 271.7 64.8018 272.24 64.5369C273.173 64.0795 274.161 63.7516 275.176 63.5599C275.725 63.4564 276.282 63.3927 276.843 63.3698C278.441 63.3047 280.036 63.5734 281.524 64.1588C283.013 64.7442 284.364 65.6334 285.49 66.7697C286.616 67.9061 287.493 69.2646 288.065 70.7587C288.637 72.2529 288.891 73.8498 288.812 75.4476C288.784 76.0081 288.715 76.5643 288.607 77.1121C288.406 78.126 288.069 79.1108 287.603 80.0391C287.333 80.5768 287.023 81.091 286.674 81.5776C286.472 81.8604 286.302 82.1666 286.171 82.4857C285.679 83.6782 285.717 85.0506 286.545 86.0527C286.824 86.3911 287.164 86.653 287.533 86.8316C288.516 87.5718 289.824 87.5989 290.972 87.1378C291.292 87.0091 291.599 86.8423 291.884 86.6425C292.374 86.2985 292.891 85.9925 293.431 85.7276C294.363 85.2702 295.351 84.9422 296.367 84.7505C296.916 84.647 297.472 84.5833 298.033 84.5604C299.632 84.4953 301.226 84.764 302.715 85.3494C304.204 85.9348 305.555 86.824 306.681 87.9604C307.807 89.0967 308.684 90.4553 309.256 91.9494C309.828 93.4435 310.082 95.0404 310.002 96.6382C309.974 97.1987 309.906 97.755 309.797 98.3027C309.596 99.3166 309.26 100.301 308.794 101.23C308.524 101.767 308.213 102.282 307.865 102.768C307.662 103.051 307.493 103.357 307.361 103.676C306.87 104.869 306.907 106.241 307.735 107.243C308.015 107.582 308.355 107.844 308.724 108.022C309.707 108.762 311.015 108.79 312.162 108.328C312.482 108.2 312.79 108.033 313.075 107.833C313.564 107.489 314.081 107.183 314.621 106.918C315.554 106.461 316.542 106.133 317.557 105.941C318.106 105.838 318.663 105.774 319.224 105.751C320.822 105.686 322.417 105.955 323.906 106.54C325.395 107.125 326.745 108.015 327.871 109.151C328.997 110.287 329.874 111.646 330.446 113.14C331.018 114.634 331.273 116.231 331.193 117.829C331.165 118.389 331.096 118.946 330.988 119.493C330.787 120.507 330.45 121.492 329.984 122.42C329.715 122.958 329.404 123.472 329.056 123.959C328.853 124.242 328.684 124.548 328.552 124.867C328.06 126.059 328.098 127.432 328.926 128.434C329.975 129.704 331.879 129.897 332.953 128.647C333.289 128.256 333.607 127.851 333.907 127.432C334.436 126.693 334.908 125.912 335.317 125.096C335.783 124.168 336.163 123.203 336.456 122.213C336.483 122.124 336.508 122.034 336.533 121.944C336.879 120.702 337.088 119.421 337.152 118.125C337.273 115.7 336.887 113.275 336.019 111.007C335.15 108.739 333.819 106.676 332.109 104.951C330.4 103.226 328.349 101.876 326.089 100.987C323.828 100.099 321.408 99.6907 318.981 99.7895C317.791 99.838 316.613 100.008 315.464 100.294C315.738 99.1961 315.905 98.0712 315.961 96.9349C316.082 94.5091 315.696 92.0847 314.828 89.8164C313.96 87.5481 312.628 85.4857 310.919 83.7605C309.209 82.0354 307.159 80.6854 304.898 79.7967C302.638 78.908 300.217 78.5 297.79 78.5989C296.601 78.6473 295.422 78.817 294.273 79.1035C294.547 78.0055 294.714 76.8805 294.771 75.7442C294.892 73.3184 294.506 70.8941 293.637 68.6258C292.769 66.3575 291.438 64.295 289.728 62.5699C288.018 60.8447 285.968 59.4948 283.708 58.6061C281.447 57.7174 279.026 57.3094 276.6 57.4083C275.41 57.4567 274.232 57.6264 273.083 57.9129C273.357 56.8148 273.524 55.6899 273.58 54.5536C273.701 52.1278 273.315 49.7035 272.447 47.4352C271.578 45.1669 270.247 43.1044 268.537 41.3793C266.828 39.6541 264.777 38.3041 262.517 37.4154C260.257 36.5267 257.836 36.1188 255.409 36.2176C254.113 36.2704 252.831 36.4671 251.585 36.8018C251.495 36.826 251.405 36.851 251.315 36.8766C250.322 37.1604 249.354 37.5324 248.422 37.9895C247.602 38.3917 246.817 38.8564 246.074 39.3785C245.652 39.6747 245.244 39.9894 244.85 40.3216C243.59 41.3839 243.766 43.2897 245.027 44.3505C246.021 45.1873 247.393 45.2376 248.59 44.7565C248.911 44.6278 249.218 44.4611 249.503 44.2612C249.993 43.9173 250.51 43.6112 251.05 43.3463Z" fill="#00A0E3"/>
<path fill-rule="evenodd" clip-rule="evenodd" d="M343.479 239.18C341.906 237.607 339.356 237.607 337.783 239.18L323.995 252.967C322.422 254.54 322.422 257.091 323.995 258.664C325.568 260.237 328.118 260.237 329.691 258.664L343.479 244.876C345.052 243.303 345.052 240.753 343.479 239.18ZM296.479 239.18C294.906 240.753 294.906 243.303 296.479 244.876L310.267 258.664C311.84 260.237 314.39 260.237 315.963 258.664C317.536 257.091 317.536 254.54 315.963 252.967L302.175 239.18C300.602 237.607 298.052 237.607 296.479 239.18ZM324.479 271.876C322.906 270.303 322.906 267.753 324.479 266.18C326.052 264.607 328.602 264.607 330.175 266.18L343.963 279.967C345.536 281.54 345.536 284.091 343.963 285.664C342.39 287.237 339.84 287.237 338.267 285.664L324.479 271.876ZM315.479 266.18C313.906 264.607 311.356 264.607 309.783 266.18L295.995 279.967C294.422 281.54 294.422 284.091 295.995 285.664C297.568 287.237 300.118 287.237 301.691 285.664L315.479 271.876C317.052 270.303 317.052 267.753 315.479 266.18Z" fill="#F62A66"/>
<rect x="59" y="69" width="244" height="306" fill="#203541"/>
<path fill-rule="evenodd" clip-rule="evenodd" d="M284.821 86H76V128.75H140.617L76 249.335V250H286V206.25H220.383L284.821 86Z" fill="#FEFEFE"/>
<path fill-rule="evenodd" clip-rule="evenodd" d="M104 265H76V357H104V311C104 336.405 124.595 357 150 357C175.405 357 196 336.405 196 311C196 285.595 175.405 265 150 265C124.595 265 104 285.595 104 311V265Z" fill="#FFD933"/>
<path fill-rule="evenodd" clip-rule="evenodd" d="M229 265H201V357H229V311L285.25 356.899V265.101L229 311V265Z" fill="#F62A66"/>
<rect x="50.2939" y="53.921" width="8.05561" height="75.0933" rx="4.0278" transform="rotate(-45 50.2939 53.921)" fill="#00A0E3"/>
<rect x="64.8156" y="39.6962" width="8.05561" height="75.0933" rx="4.0278" transform="rotate(-45 64.8156 39.6962)" fill="#00A0E3"/>
<rect x="183.265" y="33.1457" width="8.05561" height="39.1022" rx="4.0278" transform="rotate(-45 183.265 33.1457)" fill="#FFD933"/>
<rect x="187.816" y="5.69617" width="8.05561" height="39.1022" rx="4.0278" transform="rotate(-45 187.816 5.69617)" fill="#F62A66"/>
<rect x="279.371" y="369.252" width="8.05561" height="48.2156" rx="4.0278" transform="rotate(-45 279.371 369.252)" fill="#FFD933"/>
<rect x="134.6" y="387.036" width="8.05561" height="27.5544" rx="4.0278" transform="rotate(-45 134.6 387.036)" fill="#FFD933"/>
<circle cx="45.8156" cy="228" r="14.5" stroke="#F62A66" stroke-width="7"/>
<circle cx="317.816" cy="166" r="16.5" stroke="#FFD933" stroke-width="7"/>
<circle cx="205.316" cy="406.5" r="12" stroke="#F62A66" stroke-width="7"/>
<circle cx="143.816" cy="38" r="10.5" stroke="#F62A66" stroke-width="7"/>
<path fill-rule="evenodd" clip-rule="evenodd" d="M27.0496 329.346C27.9821 328.889 28.9699 328.561 29.9856 328.369C30.5343 328.266 31.0912 328.202 31.6519 328.179C33.2504 328.114 34.8449 328.383 36.3338 328.968C37.8227 329.554 39.1732 330.443 40.2994 331.579C41.4255 332.715 42.3025 334.074 42.8744 335.568C43.4463 337.062 43.7006 338.659 43.6211 340.257C43.5932 340.817 43.5244 341.374 43.416 341.921C43.2152 342.935 42.8783 343.92 42.4125 344.849C42.1427 345.386 41.832 345.9 41.4836 346.387C41.2812 346.67 41.1117 346.976 40.9801 347.295C40.4883 348.488 40.5262 349.86 41.354 350.862C41.6335 351.2 41.9738 351.462 42.3428 351.641C43.3253 352.381 44.6335 352.408 45.7809 351.947C46.1011 351.818 46.4088 351.652 46.6934 351.452C47.1831 351.108 47.7002 350.802 48.2402 350.537C49.1727 350.08 50.1605 349.752 51.1762 349.56C51.7249 349.456 52.2818 349.393 52.8425 349.37C54.441 349.305 56.0355 349.573 57.5244 350.159C59.0133 350.744 60.3639 351.633 61.49 352.77C62.6161 353.906 63.4931 355.265 64.065 356.759C64.637 358.253 64.8912 359.85 64.8117 361.448C64.7838 362.008 64.7151 362.564 64.6066 363.112C64.4058 364.126 64.0689 365.111 63.6031 366.039C63.3333 366.577 63.0226 367.091 62.6742 367.578C62.4718 367.86 62.3023 368.167 62.1707 368.486C61.6789 369.678 61.7168 371.051 62.5446 372.053C62.8242 372.391 63.1644 372.653 63.5334 372.832C64.5159 373.572 65.8241 373.599 66.9715 373.138C67.2917 373.009 67.5994 372.842 67.884 372.642C68.3738 372.299 68.8908 371.992 69.4308 371.728C70.3634 371.27 71.3511 370.942 72.3668 370.751C72.9155 370.647 73.4724 370.583 74.0331 370.56C75.6316 370.495 77.2261 370.764 78.715 371.349C80.2039 371.935 81.5545 372.824 82.6806 373.96C83.8067 375.097 84.6837 376.455 85.2556 377.949C85.8276 379.443 86.0819 381.04 86.0023 382.638C85.9744 383.199 85.9057 383.755 85.7972 384.303C85.5964 385.317 85.2595 386.301 84.7937 387.23C84.524 387.767 84.2132 388.282 83.8649 388.768C83.6624 389.051 83.4929 389.357 83.3614 389.676C82.8695 390.869 82.9074 392.241 83.7352 393.243C84.0148 393.582 84.355 393.844 84.724 394.022C85.7065 394.762 87.0147 394.79 88.1621 394.328C88.4823 394.2 88.79 394.033 89.0746 393.833C89.5644 393.489 90.0814 393.183 90.6214 392.918C91.554 392.461 92.5418 392.133 93.5574 391.941C94.1061 391.838 94.663 391.774 95.2237 391.751C96.8222 391.686 98.4167 391.955 99.9056 392.54C101.395 393.125 102.745 394.015 103.871 395.151C104.997 396.287 105.874 397.646 106.446 399.14C107.018 400.634 107.272 402.231 107.193 403.829C107.165 404.389 107.096 404.946 106.988 405.493C106.787 406.507 106.45 407.492 105.984 408.42C105.715 408.958 105.404 409.472 105.055 409.959C104.853 410.242 104.684 410.548 104.552 410.867C104.06 412.059 104.098 413.432 104.926 414.434C105.975 415.704 107.879 415.897 108.953 414.647C109.289 414.256 109.607 413.851 109.907 413.432C110.436 412.693 110.908 411.912 111.317 411.096C111.783 410.168 112.163 409.203 112.456 408.213C112.483 408.124 112.508 408.034 112.533 407.944C112.879 406.702 113.088 405.421 113.152 404.125C113.273 401.7 112.887 399.275 112.018 397.007C111.15 394.739 109.819 392.676 108.109 390.951C106.4 389.226 104.349 387.876 102.089 386.987C99.8284 386.099 97.4077 385.691 94.9809 385.79C93.7913 385.838 92.613 386.008 91.464 386.294C91.7377 385.196 91.9049 384.071 91.9615 382.935C92.0822 380.509 91.6961 378.085 90.8279 375.816C89.9596 373.548 88.6282 371.486 86.9186 369.76C85.2089 368.035 83.1585 366.685 80.8982 365.797C78.6378 364.908 76.2171 364.5 73.7903 364.599C72.6007 364.647 71.4224 364.817 70.2734 365.103C70.5471 364.005 70.7143 362.881 70.7708 361.744C70.8916 359.318 70.5055 356.894 69.6373 354.626C68.769 352.358 67.4376 350.295 65.7279 348.57C64.0183 346.845 61.9679 345.495 59.7076 344.606C57.4472 343.717 55.0264 343.309 52.5997 343.408C51.41 343.457 50.2318 343.626 49.0828 343.913C49.3565 342.815 49.5237 341.69 49.5802 340.554C49.701 338.128 49.3149 335.703 48.4466 333.435C47.5784 331.167 46.247 329.104 44.5373 327.379C42.8277 325.654 40.7773 324.304 38.5169 323.415C36.2566 322.527 33.8358 322.119 31.409 322.218C30.1131 322.27 28.8306 322.467 27.5847 322.802C27.4947 322.826 27.4048 322.851 27.3151 322.877C26.3223 323.16 25.354 323.532 24.4221 323.99C23.6022 324.392 22.8173 324.856 22.0738 325.379C21.652 325.675 21.2436 325.989 20.8497 326.322C19.5902 327.384 19.766 329.29 21.0267 330.35C22.0214 331.187 23.3933 331.238 24.5902 330.757C24.9105 330.628 25.2182 330.461 25.5028 330.261C25.9925 329.917 26.5096 329.611 27.0496 329.346Z" fill="#F62A66"/>
</svg>
