<?xml version="1.0" encoding="utf-8"?>
<!-- Generator: Adobe Illustrator 14.0.0, SVG Export Plug-In . SVG Version: 6.00 Build 43363)  -->
<!DOCTYPE svg PUBLIC "-//W3C//DTD SVG 1.1//EN" "http://www.w3.org/Graphics/SVG/1.1/DTD/svg11.dtd">
<svg version="1.1" id="Слой_1" xmlns="http://www.w3.org/2000/svg" xmlns:xlink="http://www.w3.org/1999/xlink" x="0px" y="0px"
	 width="80px" height="63px" viewBox="0 0 80 63" enable-background="new 0 0 80 63" xml:space="preserve">
<path fill="white" d="M77.5,5.041H70c-0.665-0.004-1.303,0.259-1.775,0.73l-4.25,4.31H60v-2.52C60,3.385,56.642,0,52.5,0h-45
	C3.358,0,0,3.385,0,7.561V47.88c0,4.175,3.358,7.56,7.5,7.56H10v-5.041H7.5c-1.381,0-2.5-1.128-2.5-2.52V7.561
	c0-1.392,1.119-2.52,2.5-2.52h45c1.381,0,2.5,1.128,2.5,2.52V32.76h5V15.12h5c0.665,0.004,1.303-0.258,1.775-0.73l4.25-4.309H75
	v35.28h-3.975l-4.275-4.31l-3.525,3.554l5,5.04c0.468,0.481,1.107,0.753,1.775,0.755h7.5c1.381,0,2.5-1.128,2.5-2.52V7.561
	C80,6.168,78.881,5.041,77.5,5.041z"/>
<path fill="white" d="M47.5,22.68V12.6c0-1.392-1.119-2.52-2.5-2.52H15c-1.381,0-2.5,1.128-2.5,2.52v10.08
	c0,1.392,1.119,2.52,2.5,2.52h30C46.381,25.2,47.5,24.072,47.5,22.68z"/>
<path fill="white" d="M32.5,37.8h-5v12.6h-5V37.8h-5v15.12c0,1.392,1.119,2.52,2.5,2.52h7.5V63h5v-7.56H35v-5.041h-2.5V37.8z"/>
<path fill="white" d="M54.275,42.109l-3.55-3.579L42.5,46.847V37.8h-5V63h5v-9.046l2.3-2.294l8.25,10.408l3.9-3.15l-8.6-10.861
	L54.275,42.109z"/>
</svg>
