<?xml version="1.0" encoding="utf-8"?>
<!-- Generator: Adobe Illustrator 14.0.0, SVG Export Plug-In . SVG Version: 6.00 Build 43363)  -->
<!DOCTYPE svg PUBLIC "-//W3C//DTD SVG 1.1//EN" "http://www.w3.org/Graphics/SVG/1.1/DTD/svg11.dtd">
<svg version="1.1" id="Слой_1" xmlns="http://www.w3.org/2000/svg" xmlns:xlink="http://www.w3.org/1999/xlink" x="0px" y="0px"
	 width="47px" height="62px" viewBox="0 0 47 62" enable-background="new 0 0 47 62" xml:space="preserve">
<path fill="white" d="M12.181,48.422c-0.02,0.022-0.041,0.044-0.06,0.066c-1.22,1.318-0.285,3.46,1.507,3.46h19.744
	c1.792,0,2.727-2.143,1.507-3.46c-0.02-0.022-0.041-0.043-0.061-0.066c-1.833-1.969-8.733-7.82-8.822-7.896
	c-1.437-1.238-3.556-1.238-4.993,0C20.915,40.603,14.015,46.454,12.181,48.422z"/>
<path fill="white" d="M32.916,29.171c0.574-0.502,1.231-1.057,1.927-1.644C39.973,23.193,47,17.258,47,11.02V7.266
	C47,3.259,43.756,0,39.77,0H7.23C3.244,0,0,3.259,0,7.266v3.753c0,6.239,7.027,12.174,12.158,16.508
	c0.696,0.587,1.353,1.142,1.927,1.645c0.546,0.477,0.859,1.143,0.859,1.828s-0.313,1.352-0.859,1.829
	c-0.574,0.502-1.231,1.057-1.927,1.644C7.027,38.807,0,44.742,0,50.98v3.754C0,58.741,3.244,62,7.23,62H39.77
	c3.987,0,7.23-3.259,7.23-7.266c0-1.338-1.079-2.422-2.41-2.422s-2.41,1.084-2.41,2.422c0,1.335-1.082,2.421-2.41,2.421H7.23
	c-1.329,0-2.41-1.086-2.41-2.421V50.98c0-3.982,6.535-9.502,10.439-12.8c0.712-0.601,1.384-1.168,1.989-1.698
	c1.599-1.396,2.516-3.396,2.516-5.482s-0.917-4.085-2.515-5.483c-0.605-0.529-1.278-1.096-1.989-1.697
	C11.355,20.521,4.82,15.002,4.82,11.02V7.266c0-1.336,1.082-2.422,2.41-2.422H39.77c1.329,0,2.41,1.086,2.41,2.422v3.753
	c0,3.982-6.535,9.502-10.439,12.8c-0.712,0.601-1.384,1.168-1.989,1.697c-1.599,1.397-2.516,3.396-2.516,5.483
	s0.917,4.085,2.515,5.482c0.631,0.551,1.334,1.143,2.078,1.769c2.345,1.973,5.002,4.208,7.101,6.586
	c0.883,1.001,2.406,1.093,3.402,0.207c0.996-0.888,1.088-2.418,0.205-3.419c-2.336-2.648-5.263-5.11-7.614-7.087
	c-0.726-0.611-1.412-1.188-2.008-1.709c-0.546-0.476-0.859-1.143-0.859-1.827S32.37,29.649,32.916,29.171z"/>
<path fill="white" d="M26.104,22.431c0.043-0.038,1.726-1.491,3.642-3.193c1.501-1.334,0.577-3.858-1.414-3.858h-9.424
	c-1.99,0-2.915,2.523-1.413,3.858c1.916,1.703,3.598,3.156,3.642,3.193C22.566,23.685,24.675,23.685,26.104,22.431z"/>
</svg>
