<?xml version="1.0" encoding="utf-8"?>
<!-- Generator: Adobe Illustrator 14.0.0, SVG Export Plug-In . SVG Version: 6.00 Build 43363)  -->
<!DOCTYPE svg PUBLIC "-//W3C//DTD SVG 1.1//EN" "http://www.w3.org/Graphics/SVG/1.1/DTD/svg11.dtd">
<svg version="1.1" id="Слой_1" xmlns="http://www.w3.org/2000/svg" xmlns:xlink="http://www.w3.org/1999/xlink" x="0px" y="0px"
	 width="64px" height="64px" viewBox="0 0 64 64" enable-background="new 0 0 64 64" xml:space="preserve">
<path fill="white" d="M32,39.5c4.136,0,7.5-3.364,7.5-7.5c0-2.901-3.907-16.207-5.104-20.216c-0.001-0.002-0.002-0.004-0.003-0.007
	c-0.01-0.035-0.023-0.068-0.035-0.102c-0.013-0.037-0.026-0.075-0.041-0.111c-0.013-0.033-0.028-0.065-0.042-0.097
	c-0.017-0.038-0.035-0.075-0.054-0.112c-0.015-0.028-0.03-0.057-0.046-0.085c-0.023-0.041-0.047-0.08-0.072-0.12
	c-0.015-0.022-0.029-0.045-0.044-0.067c-0.036-0.051-0.073-0.102-0.112-0.15c-0.007-0.009-0.013-0.018-0.02-0.026
	c-0.047-0.058-0.098-0.113-0.15-0.165c-0.014-0.016-0.03-0.029-0.044-0.043c-0.039-0.037-0.077-0.072-0.118-0.106
	c-0.021-0.018-0.043-0.036-0.064-0.052c-0.036-0.029-0.073-0.057-0.111-0.083c-0.024-0.018-0.049-0.035-0.074-0.052
	c-0.038-0.024-0.077-0.047-0.117-0.07c-0.025-0.015-0.05-0.03-0.076-0.044c-0.059-0.031-0.118-0.06-0.179-0.086
	c-0.027-0.012-0.055-0.022-0.082-0.032c-0.046-0.018-0.092-0.036-0.139-0.05c-0.03-0.01-0.061-0.019-0.091-0.027
	c-0.043-0.012-0.086-0.023-0.13-0.033c-0.031-0.007-0.061-0.013-0.092-0.02c-0.048-0.009-0.098-0.016-0.147-0.022
	c-0.026-0.003-0.053-0.007-0.08-0.01C32.156,10.004,32.079,10,32,10c-12.131,0-22,9.869-22,22s9.869,22,22,22
	c12.075,0,21.908-9.779,21.998-21.833c0-0.014,0.002-0.028,0.002-0.042c0-0.02-0.001-0.038-0.001-0.057
	C53.999,32.045,54,32.022,54,32c0-0.018-0.002-0.035-0.002-0.053c-0.028-3.425-0.861-6.832-2.417-9.86
	c-1.53-2.979-3.762-5.613-6.454-7.617c-1.107-0.826-2.673-0.596-3.498,0.512c-0.825,1.107-0.595,2.674,0.512,3.498
	c4.343,3.233,6.84,8.184,6.858,13.586C48.963,41.41,41.352,49,32,49c-9.374,0-17-7.626-17-17c0-8.193,5.827-15.052,13.555-16.649
	C26.94,20.917,24.5,29.707,24.5,32C24.5,36.136,27.865,39.5,32,39.5z M31.999,21.545C33.404,26.638,34.49,31,34.5,32
	c0,1.378-1.122,2.5-2.5,2.5s-2.5-1.122-2.5-2.499C29.51,30.983,30.584,26.662,31.999,21.545z"/>
<path fill="white" d="M54.627,9.372C48.583,3.329,40.547,0,32,0S15.417,3.329,9.373,9.372C3.329,15.417,0,23.453,0,32
	s3.329,16.583,9.373,22.627S23.453,64,32,64c5.852,0,11.577-1.595,16.558-4.611c1.181-0.716,1.559-2.253,0.843-3.434
	c-0.715-1.181-2.252-1.559-3.433-0.843C41.768,57.655,36.938,59,32,59C17.112,59,5,46.888,5,32S17.112,5,32,5s27,12.112,27,27
	c0,5.324-1.583,10.505-4.579,14.985c-0.767,1.148-0.459,2.701,0.689,3.468s2.701,0.459,3.468-0.688C62.125,44.459,64,38.316,64,32
	C64,23.453,60.671,15.417,54.627,9.372z"/>
</svg>
